<?xml version="1.0" encoding="UTF-8" standalone="no"?>
<svg
   xmlns:dc="http://purl.org/dc/elements/1.1/"
   xmlns:cc="http://creativecommons.org/ns#"
   xmlns:rdf="http://www.w3.org/1999/02/22-rdf-syntax-ns#"
   xmlns:svg="http://www.w3.org/2000/svg"
   xmlns="http://www.w3.org/2000/svg"
   xmlns:sodipodi="http://sodipodi.sourceforge.net/DTD/sodipodi-0.dtd"
   xmlns:inkscape="http://www.inkscape.org/namespaces/inkscape"
   width="12pt"
   height="12pt"
   viewBox="0 0 12 12"
   version="1.1"
   id="svg9"
   sodipodi:docname="Gender_sign.svg"
   inkscape:version="0.92.5 (2060ec1f9f, 2020-04-08)">
  <metadata
     id="metadata15">
    <rdf:RDF>
      <cc:Work
         rdf:about="">
        <dc:format>image/svg+xml</dc:format>
        <dc:type
           rdf:resource="http://purl.org/dc/dcmitype/StillImage" />
      </cc:Work>
    </rdf:RDF>
  </metadata>
  <defs
     id="defs13" />
  <sodipodi:namedview
     pagecolor="#ffffff"
     bordercolor="#666666"
     borderopacity="1"
     objecttolerance="10"
     gridtolerance="10"
     guidetolerance="10"
     inkscape:pageopacity="0"
     inkscape:pageshadow="2"
     inkscape:window-width="1920"
     inkscape:window-height="1009"
     id="namedview11"
     showgrid="false"
     inkscape:snap-midpoints="true"
     inkscape:snap-smooth-nodes="true"
     inkscape:zoom="41.7193"
     inkscape:cx="-2.0220656"
     inkscape:cy="7.0583458"
     inkscape:window-x="0"
     inkscape:window-y="0"
     inkscape:window-maximized="1"
     inkscape:current-layer="svg9"
     inkscape:snap-object-midpoints="true"
     inkscape:object-paths="false"
     inkscape:object-nodes="true" />
  <path
     style="color:#000000;font-style:normal;font-variant:normal;font-weight:normal;font-stretch:normal;font-size:medium;line-height:normal;font-family:sans-serif;font-variant-ligatures:normal;font-variant-position:normal;font-variant-caps:normal;font-variant-numeric:normal;font-variant-alternates:normal;font-feature-settings:normal;text-indent:0;text-align:start;text-decoration:none;text-decoration-line:none;text-decoration-style:solid;text-decoration-color:#000000;letter-spacing:normal;word-spacing:normal;text-transform:none;writing-mode:lr-tb;direction:ltr;text-orientation:mixed;dominant-baseline:auto;baseline-shift:baseline;text-anchor:start;white-space:normal;shape-padding:0;clip-rule:nonzero;display:inline;overflow:visible;visibility:visible;opacity:1;isolation:auto;mix-blend-mode:normal;color-interpolation:sRGB;color-interpolation-filters:linearRGB;solid-color:#000000;solid-opacity:1;vector-effect:none;fill:#ffffff;fill-opacity:1;fill-rule:nonzero;stroke:#000000;stroke-width:0.333;stroke-linecap:butt;stroke-linejoin:miter;stroke-miterlimit:10;stroke-dasharray:none;stroke-dashoffset:0;stroke-opacity:1;color-rendering:auto;image-rendering:auto;shape-rendering:auto;text-rendering:auto;enable-background:accumulate"
     d="M 1.6660156 0.66601562 L 1.6660156 3.6933594 L 3 3.6933594 L 3 2.9433594 L 3.4589844 3.4023438 L 2.7519531 4.109375 L 3.6953125 5.0527344 L 4.4023438 4.3457031 L 4.7460938 4.6894531 C 4.281049 5.3439509 4 6.1403021 4 7 C 4 8.971646 5.4501336 10.610457 7.3339844 10.931641 L 7.3339844 11.833984 L 5.5 11.833984 L 5.5 13.166016 L 7.3339844 13.166016 L 7.3339844 14.666016 L 8.6660156 14.666016 L 8.6660156 13.166016 L 10.5 13.166016 L 10.5 11.833984 L 8.6660156 11.833984 L 8.6660156 10.931641 C 10.549866 10.610457 12 8.971646 12 7 C 12 6.1403021 11.718951 5.3439509 11.253906 4.6894531 L 13 2.9433594 L 13 4.0917969 L 14.333984 4.0917969 L 14.333984 0.66601562 L 10.908203 0.66601562 L 10.908203 2 L 12.056641 2 L 10.310547 3.7460938 C 9.6560491 3.281049 8.8596979 3 8 3 C 7.1403021 3 6.3439509 3.281049 5.6894531 3.7460938 L 5.3457031 3.4023438 L 6.0527344 2.6953125 L 5.109375 1.7519531 L 4.4023438 2.4589844 L 3.9433594 2 L 4.6933594 2 L 4.6933594 0.66601562 L 1.6660156 0.66601562 z M 8 4.3339844 C 8.7386424 4.3339844 9.4008935 4.6313621 9.8847656 5.1152344 C 10.368638 5.5991065 10.666016 6.2613576 10.666016 7 C 10.666016 8.4772847 9.4772847 9.6660156 8 9.6660156 C 6.5227153 9.6660156 5.3339844 8.4772847 5.3339844 7 C 5.3339844 6.2613576 5.6313621 5.5991065 6.1152344 5.1152344 C 6.5991065 4.6313621 7.2613576 4.3339844 8 4.3339844 z "
     transform="scale(0.75)"
     id="path2" />
</svg>
