<?xml version="1.0" encoding="UTF-8" standalone="no"?>
<svg
   width="12pt"
   height="12pt"
   viewBox="0 0 12 12"
   version="1.1"
   id="svg9"
   sodipodi:docname="trans-communism.svg"
   inkscape:version="1.2.2 (b0a8486541, 2022-12-01)"
   xmlns:inkscape="http://www.inkscape.org/namespaces/inkscape"
   xmlns:sodipodi="http://sodipodi.sourceforge.net/DTD/sodipodi-0.dtd"
   xmlns="http://www.w3.org/2000/svg"
   xmlns:svg="http://www.w3.org/2000/svg"
   xmlns:rdf="http://www.w3.org/1999/02/22-rdf-syntax-ns#"
   xmlns:cc="http://creativecommons.org/ns#"
   xmlns:dc="http://purl.org/dc/elements/1.1/">
  <metadata
     id="metadata15">
    <rdf:RDF>
      <cc:Work
         rdf:about="">
        <dc:format>image/svg+xml</dc:format>
        <dc:type
           rdf:resource="http://purl.org/dc/dcmitype/StillImage" />
      </cc:Work>
    </rdf:RDF>
  </metadata>
  <defs
     id="defs13" />
  <sodipodi:namedview
     pagecolor="#ffffff"
     bordercolor="#666666"
     borderopacity="1"
     objecttolerance="10"
     gridtolerance="10"
     guidetolerance="10"
     inkscape:pageopacity="0"
     inkscape:pageshadow="2"
     inkscape:window-width="1866"
     inkscape:window-height="1012"
     id="namedview11"
     showgrid="false"
     inkscape:snap-midpoints="true"
     inkscape:snap-smooth-nodes="true"
     inkscape:zoom="45.254834"
     inkscape:cx="7.7781746"
     inkscape:cy="8.4963299"
     inkscape:window-x="0"
     inkscape:window-y="0"
     inkscape:window-maximized="1"
     inkscape:current-layer="svg9"
     inkscape:snap-object-midpoints="true"
     inkscape:object-paths="false"
     inkscape:object-nodes="true"
     inkscape:showpageshadow="2"
     inkscape:pagecheckerboard="0"
     inkscape:deskcolor="#d1d1d1"
     inkscape:document-units="pt"
     inkscape:lockguides="false" />
  <path
     style="color:#000000;font-style:normal;font-variant:normal;font-weight:normal;font-stretch:normal;font-size:medium;line-height:normal;font-family:sans-serif;font-variant-ligatures:normal;font-variant-position:normal;font-variant-caps:normal;font-variant-numeric:normal;font-variant-alternates:normal;font-feature-settings:normal;text-indent:0;text-align:start;text-decoration:none;text-decoration-line:none;text-decoration-style:solid;text-decoration-color:#000000;letter-spacing:normal;word-spacing:normal;text-transform:none;writing-mode:lr-tb;direction:ltr;text-orientation:mixed;dominant-baseline:auto;baseline-shift:baseline;text-anchor:start;white-space:normal;shape-padding:0;clip-rule:nonzero;display:inline;overflow:visible;visibility:visible;opacity:1;isolation:auto;mix-blend-mode:normal;color-interpolation:sRGB;color-interpolation-filters:linearRGB;solid-color:#000000;solid-opacity:1;fill:#ffffff;fill-opacity:1;fill-rule:nonzero;stroke:#000000;stroke-width:0.05;stroke-linecap:butt;stroke-linejoin:miter;stroke-miterlimit:10;stroke-dasharray:none;stroke-dashoffset:0;stroke-opacity:1;color-rendering:auto;image-rendering:auto;shape-rendering:auto;text-rendering:auto;enable-background:accumulate"
     d="m 8.9999997,6.2490237 c 0,-0.7393673 -0.332131,-1.4119254 -0.8367584,-1.9252006 0.6254538,0.7462143 0.5392541,1.27857 0.440164,1.9313997 C 7.9391068,8.43943 6.1299523,8.911871 4.3346499,7.7913325 3.8347773,8.2684079 1.9660947,9.8703464 1.9660947,9.8703464 L 1.9515377,8.833832 1.2425995,8.8148806 l 0.00691,2.1846314 h 2.5693358 l 0.02877,-0.539978 -1.5474246,-0.02573 1.9668962,-1.7443546 C 6.6039696,9.5612186 8.8302062,8.7750504 8.9999971,6.2490197 Z M 6.5831581,6.6249575 8.6740714,8.5590766 9.2279854,8.0025076 9.5352315,8.2846339 9.0210056,8.8135196 10.153829,9.9189718 10.102169,8.7407682 10.750488,8.7290042 V 10.999508 H 8.4799792 l 0.00871,-0.691475 1.4195251,0.01479 L 8.6669076,9.2766932 8.0588193,9.8914993 7.6981488,9.5160658 8.2991647,8.9211498 6.2080551,6.9704546 5.9147471,7.2717435 5.3847731,6.7927826 6.3370626,5.9030296 7.118186,6.0813492 Z M 3.8186428,7.1807679 C 3.7175214,6.9419851 3.6709412,6.6954652 3.6709412,6.4184743 c 0,-1.1079635 0.6414673,-2.5034936 2.2980168,-2.5810492 0.5533756,-0.025908 0.8746705,0.1017546 1.2840267,0.5254387 L 7.8319944,3.982494 C 7.342185,3.5234049 7.0657508,3.2164792 6.2510487,3.1701381 V 2.4933808 l 1.214486,0.00621 -0.01366,-0.6195971 -1.1972982,0.00602 V 0.76101909 L 5.6387027,0.753024 v 1.125 l -1.1351501,-0.012915 0.01366,0.6195972 1.1130746,0.011264 v 0.6767574 c -1.7902758,0.07134 -2.6951545,1.7850739 -2.7443874,3.0341196 -0.025395,0.6442731 0.065893,0.9264202 0.4146769,1.4172936 z"
     id="path2"
     sodipodi:nodetypes="cssccccccccccccccsccccccccccccccccccccccccccccccccccccc" />
  <g
     inkscape:groupmode="layer"
     id="layer1"
     inkscape:label="Layer 1">
    <path
       style="display:none;fill:#000000;stroke:#000000;stroke-width:0.05;stroke-dasharray:none;stroke-opacity:1;paint-order:fill markers stroke;image-rendering:auto"
       d="M 0.67365685,11.536576 6.2818694,5.8391438 11.890082,0.14171161"
       id="path3940"
       inkscape:highlight-color="#c73bee"
       sodipodi:nodetypes="ccc" />
  </g>
</svg>
