<?xml version="1.0" encoding="UTF-8" standalone="no"?>
<svg width="100%" height="100%" viewBox="0 0 12 12" version="1.1" xmlns:inkscape="http://www.inkscape.org/namespaces/inkscape" xmlns="http://www.w3.org/2000/svg">
    <g inkscape:groupmode="layer" id="background" inkscape:label="background">
        <rect
            id="stencil-background"
            width="100%"
            height="100%"
            fill="white"
        />
    </g>
    
    
    <path
        d="M 8.4309766,7.9859508 C 8.7797602,7.4950774 8.9999997,6.8937971 8.9999997,6.2490237 c 0,-1.0168129 -0.495947,-1.959404 -1.3088202,-2.4457765 0.5704046,0.3978516 0.9125176,1.222103 0.8492739,2.391088 C 8.4907093,7.1137972 7.9392772,7.593942 7.7326494,7.8043568 7.3730556,8.1705413 6.583049,8.3384557 6.0290672,8.3384557 5.4750854,8.3384557 4.94933,8.0255018 4.5864258,7.6625977 4.4664433,7.5426157 4.36175,7.40801 4.275351,7.2615449 l -0.7157808,0.720389 m 0,0 -1.3095705,1.3095703 V 8.430176 h -1.000488 v 2.569336 H 3.8188475 V 9.9990237 H 2.957519 L 4.2670895,8.6894534 C 4.7579629,9.038237 5.3552263,9.2490237 5.9999997,9.2490237 7.1394507,9.2099764 7.8214827,8.6369984 8.4309766,7.9859508"
        id="sickle" inkscape:label="sickle" 
        stroke-width="0"
        stroke="black"
        fill="black"
    />
    <path
        d="M 4.0422204,6.6584673 C 3.8402112,5.7686104 4.3361693,4.7858926 5.1755529,4.4255729 5.5476809,4.2562621 5.9718314,4.2093992 6.3730126,4.284004 L 7.1365003,3.5179361 C 6.9449954,3.4029259 6.7245368,3.3385074 6.4995114,3.300293 V 2.6235357 H 7.8749997 V 1.6245117 H 6.4995114 V 0.49951172 H 5.500488 V 1.6245117 H 4.1249997 v 0.999024 H 5.500488 V 3.300293 C 4.219832,3.5006974 3.1503067,4.6150042 3.0195508,5.9073683 2.9581003,6.4310285 3.0410861,6.9703448 3.2566651,7.4514708 L 4.0422204,6.6584673"
        id="girly" inkscape:label="girly"
        stroke-width="0"
        stroke="black"
        fill="black"
    />
    <path
        d="M 6.6786369,6.2494545 8.6982419,8.2397464 9.2285153,7.7094729 9.9360349,8.4169925 9.4057614,8.9472659 9.7499997,9.2915042 v -0.5625 H 10.750488 V 10.999512 H 8.4799797 V 9.9990237 h 0.5625 L 8.6982414,9.6547854 8.167968,10.185059 7.4604484,9.4775393 7.9907219,8.9472659 5.9824784,6.9536129 5.4649119,7.4639108 4.7517085,6.7659155 6.4418884,5.02372 7.4679034,5.4525787 Z"
        id="hammer" inkscape:label="hammer"
        stroke-width="0"
        stroke="black"
        fill="black"
    />
</svg>